<svg width="48" height="48" viewBox="0 0 48 48" xmlns="http://www.w3.org/2000/svg">
  <defs>
    <linearGradient id="g" x1="0" y1="0" x2="1" y2="1">
      <stop offset="0%"  stop-color="#7c3aed"/>
      <stop offset="100%" stop-color="#06b6d4"/>
    </linearGradient>
  </defs>
  <rect x="2" y="2" width="44" height="44" rx="12" fill="url(#g)"/>
  <path d="M14 18 L14 30 Q14 34 18 34 L24 34 L24 36 L18 36 Q12 36 12 30 L12 18 Q12 12 18 12 L24 12 L24 14 L18 14 Q14 14 14 18 Z" fill="#fff" opacity=".95"/>
  <path d="M28 14 L36 14 L36 16 L28 16 Z M28 22 L36 22 L36 24 L28 24 Z M28 30 L36 30 L36 32 L28 32 Z" fill="#fff" opacity=".95"/>
  <circle cx="38" cy="15" r="2" fill="#10b981"/>
</svg>
